<svg xmlns="http://www.w3.org/2000/svg" viewBox="0 0 598.6 279.6"><style>.st0{fill:#ff4500}</style><circle cx="495.4" cy="113.7" r="10.6" class="st0"/><path fill="#222" d="M344 158.9c5.2 0 8.2-3.9 8-7.7-.1-2-.3-3.3-.5-4.3-3.2-13.8-14.4-24-27.7-24-15.8 0-28.6 14.3-28.6 31.9 0 17.6 12.8 31.9 28.6 31.9 9.9 0 17-3.6 22.1-9.3 2.5-2.8 2-7.1-1-9.2-2.5-1.7-5.6-1.1-7.9.8-2.2 1.9-6.4 5.7-13.2 5.7-8 0-14.8-6.9-16.3-16H344zM323.7 135c7.2 0 13.4 5.6 15.7 13.3H308c2.3-7.8 8.5-13.3 15.7-13.3zm-27.9-5.8a6 6 0 0 0-5-5.9 23.1 23.1 0 0 0-21.6 7.8v-.8c0-3.7-3-6-6-6a6 6 0 0 0-6 6v49c0 3.2 2.4 6 5.6 6.2a6 6 0 0 0 6.4-6v-25.3c0-11.2 8.4-20.4 20-19.1h1.2c3-.2 5.4-2.8 5.4-5.9zm205.6 6.4c0-3.3-2.7-6-6-6s-6 2.7-6 6v43.9c0 3.3 2.7 6 6 6s6-2.7 6-6v-43.9zm-89.2-33.2a6 6 0 0 0-6-6 6 6 0 0 0-6 6v26.7a20.7 20.7 0 0 0-15.3-6.1c-15.8 0-28.6 14.3-28.6 31.9 0 17.6 12.8 31.9 28.6 31.9a21 21 0 0 0 15.4-6.2 6 6 0 0 0 11.9-1.1v-77.1zM385 174.9c-9.2 0-16.6-8.9-16.6-20 0-11 7.4-20 16.6-20 9.2 0 16.6 8.9 16.6 20s-7.5 20-16.6 20zm89.8-72.5a6 6 0 0 0-6-6 6 6 0 0 0-6 6v26.7a20.7 20.7 0 0 0-15.3-6.1c-15.8 0-28.6 14.3-28.6 31.9 0 17.6 12.8 31.9 28.6 31.9a21 21 0 0 0 15.4-6.2 6 6 0 0 0 11.9-1.1v-77.1zm-27.3 72.5c-9.2 0-16.6-8.9-16.6-20 0-11 7.4-20 16.6-20 9.2 0 16.6 8.9 16.6 20s-7.4 20-16.6 20zm84.3 4.7V135h5.3c2.8 0 5.3-2.1 5.5-5a5.4 5.4 0 0 0-5.3-5.7h-5.5v-8.4c0-3.2-2.4-6-5.6-6.2a6 6 0 0 0-6.4 6v8.7h-5a5.5 5.5 0 0 0-5.5 5 5.4 5.4 0 0 0 5.3 5.7h5.1v44.6a6 6 0 0 0 6 6c3.5-.2 6.1-2.8 6.1-6.1z"/><circle cx="139.8" cy="139.8" r="83.8" class="st0"/><path fill="#fff" d="M195.7 139.8A12.2 12.2 0 0 0 175 131c-8.4-6-19.9-9.9-32.7-10.4l5.6-26.2 18.2 3.9a8.7 8.7 0 1 0 .9-4.2l-20.3-4.3c-.6-.1-1.2 0-1.6.3a2 2 0 0 0-.9 1.4l-6.2 29.2c-13 .4-24.7 4.3-33.2 10.4A12.2 12.2 0 1 0 91.3 151c-.2 1.2-.3 2.4-.3 3.7 0 18.8 21.9 34.1 48.9 34.1s48.9-15.2 48.9-34.1a23 23 0 0 0-.3-3.7c4.2-1.9 7.2-6.2 7.2-11.2zm-83.8 8.7a8.7 8.7 0 1 1 17.4 0 8.7 8.7 0 0 1-17.4 0zm48.7 23.1c-6 6-17.4 6.4-20.7 6.4-3.4 0-14.8-.5-20.7-6.4-.9-.9-.9-2.3 0-3.2.9-.9 2.3-.9 3.2 0 3.8 3.8 11.8 5.1 17.5 5.1 5.7 0 13.8-1.3 17.5-5.1.9-.9 2.3-.9 3.2 0 .8.9.8 2.3 0 3.2zm-1.6-14.3a8.7 8.7 0 1 1 0-17.4 8.7 8.7 0 0 1 0 17.4z"/></svg>
